
<svg width="400" height="400" viewBox="0 0 400 400" fill="none" xmlns="http://www.w3.org/2000/svg">
  <!-- Stars Background -->
  <circle cx="100" cy="80" r="3" fill="#FFFFFF" />
  <circle cx="150" cy="60" r="2" fill="#FFFFFF" />
  <circle cx="200" cy="40" r="4" fill="#FFFFFF" />
  <circle cx="250" cy="70" r="3" fill="#FFFFFF" />
  <circle cx="300" cy="90" r="2" fill="#FFFFFF" />
  <circle cx="80" cy="120" r="2" fill="#FFFFFF" />
  <circle cx="120" cy="150" r="3" fill="#FFFFFF" />
  <circle cx="220" cy="130" r="2" fill="#FFFFFF" />
  <circle cx="280" cy="140" r="3" fill="#FFFFFF" />
  <circle cx="330" cy="120" r="2" fill="#FFFFFF" />
  <circle cx="100" cy="200" r="2" fill="#FFFFFF" />
  <circle cx="330" cy="220" r="3" fill="#FFFFFF" />
  <circle cx="350" cy="180" r="2" fill="#FFFFFF" />
  <circle cx="50" cy="180" r="3" fill="#FFFFFF" />
  
  <!-- Traditional Magic Lamp -->
  <!-- Lamp Base -->
  <path d="M170 320H230C235 320 240 325 240 330C240 335 235 340 230 340H170C165 340 160 335 160 330C160 325 165 320 170 320Z" fill="#7E69AB" />
  
  <!-- Lamp Stem -->
  <path d="M190 280H210V320H190V280Z" fill="#6E59A5" />
  
  <!-- Lamp Body -->
  <path d="M140 180C140 220 160 260 200 260C240 260 260 220 260 180C260 140 240 100 200 100C160 100 140 140 140 180Z" fill="#9b87f5" />
  
  <!-- Lamp Top -->
  <path d="M180 100H220C230 100 235 90 235 80C235 70 230 60 220 60H180C170 60 165 70 165 80C165 90 170 100 180 100Z" fill="#7E69AB" />
  
  <!-- Lamp Spout -->
  <path d="M140 180C130 190 120 200 110 190C100 180 110 170 120 160C130 150 140 170 140 180Z" fill="#9b87f5" />
  
  <!-- Light Glow -->
  <circle cx="200" cy="180" r="40" fill="#FEF7CD" fillOpacity="0.5" />
  
  <!-- Small Stars inside Lamp -->
  <circle cx="190" cy="160" r="2" fill="#FFFFFF" />
  <circle cx="210" cy="170" r="2" fill="#FFFFFF" />
  <circle cx="200" cy="150" r="1.5" fill="#FFFFFF" />
  <circle cx="180" cy="180" r="1.5" fill="#FFFFFF" />
  <circle cx="220" cy="190" r="1.5" fill="#FFFFFF" />
  <circle cx="195" cy="200" r="2" fill="#FFFFFF" />
  
  <!-- Sparkles -->
  <path d="M190 150L193 155L198 156L194 160L195 165L190 163L185 165L186 160L182 156L187 155L190 150Z" fill="#FFFFFF" />
  <path d="M220 170L222 173L225 174L222 176L223 179L220 178L217 179L218 176L215 174L218 173L220 170Z" fill="#FFFFFF" />
  <path d="M175 190L177 193L180 194L177 196L178 199L175 198L172 199L173 196L170 194L173 193L175 190Z" fill="#FFFFFF" />
</svg>
