
<svg width="400" height="400" viewBox="0 0 400 400" fill="none" xmlns="http://www.w3.org/2000/svg">
  <!-- Stars Background -->
  <circle cx="100" cy="80" r="3" fill="#FFFFFF" />
  <circle cx="150" cy="60" r="2" fill="#FFFFFF" />
  <circle cx="200" cy="40" r="4" fill="#FFFFFF" />
  <circle cx="250" cy="70" r="3" fill="#FFFFFF" />
  <circle cx="300" cy="90" r="2" fill="#FFFFFF" />
  <circle cx="80" cy="120" r="2" fill="#FFFFFF" />
  <circle cx="120" cy="150" r="3" fill="#FFFFFF" />
  <circle cx="220" cy="130" r="2" fill="#FFFFFF" />
  <circle cx="280" cy="140" r="3" fill="#FFFFFF" />
  <circle cx="330" cy="120" r="2" fill="#FFFFFF" />
  <circle cx="100" cy="200" r="2" fill="#FFFFFF" />
  <circle cx="330" cy="220" r="3" fill="#FFFFFF" />
  <circle cx="350" cy="180" r="2" fill="#FFFFFF" />
  <circle cx="50" cy="180" r="3" fill="#FFFFFF" />
  
  <!-- Top-left puzzle piece -->
  <path d="M50 50C45 55 45 60 50 65C55 70 60 70 65 65C70 60 75 65 80 70C85 75 80 80 75 85C70 90 70 95 75 100C80 105 85 105 90 100C95 95 100 100 105 105C110 110 105 115 100 120C95 125 95 130 100 135C105 140 110 140 115 135C120 130 125 135 130 140C135 145 130 150 125 155C120 160 120 165 125 170C130 175 135 175 140 170"
        stroke="#9b87f5" stroke-width="4" fill="none" opacity="0.6" />
  
  <!-- Top-right puzzle piece -->
  <path d="M350 50C345 45 340 45 335 50C330 55 325 50 320 45C315 40 320 35 325 30C330 25 325 20 320 15C315 10 310 10 305 15C300 20 295 15 290 10C285 5 290 0 295 -5C300 -10 300 -15 295 -20C290 -25 285 -25 280 -20C275 -15 270 -20 265 -25C260 -30 265 -35 270 -40C275 -45 275 -50 270 -55C265 -60 260 -60 255 -55"
        stroke="#6E59A5" stroke-width="4" fill="none" opacity="0.6" transform="translate(0, 60)" />
  
  <!-- Bottom-left puzzle piece -->
  <path d="M20 300C25 305 30 305 35 300C40 295 45 300 50 305C55 310 50 315 45 320C40 325 45 330 50 335C55 340 60 340 65 335C70 330 75 335 80 340C85 345 80 350 75 355C70 360 75 365 80 370C85 375 90 375 95 370C100 365 105 370 110 375C115 380 110 385 105 390C100 395 105 400 110 405C115 410 120 410 125 405"
        stroke="#7E69AB" stroke-width="4" fill="none" opacity="0.6" transform="translate(10, 0)" />
  
  <!-- Bottom-right puzzle piece -->
  <path d="M320 300C325 295 330 295 335 300C340 305 345 300 350 295C355 290 350 285 345 280C340 275 345 270 350 265C355 260 360 260 365 265C370 270 375 265 380 260C385 255 380 250 375 245C370 240 375 235 380 230C385 225 390 225 395 230C400 235 405 230 410 225C415 220 410 215 405 210C400 205 405 200 410 195C415 190 420 190 425 195"
        stroke="#9b87f5" stroke-width="4" fill="none" opacity="0.6" transform="translate(-30, 0)" />
  
  <!-- Center small pieces -->
  <path d="M180 170L185 175L190 170L195 175L200 170L205 175L210 170L215 175L210 180L215 185L210 190L215 195L210 200L205 195L200 200L195 195L190 200L185 195L180 200L175 195L180 190L175 185L180 180L175 175L180 170Z" 
        fill="#9b87f5" opacity="0.4" />

  <!-- Some small sparkles -->
  <path d="M190 150L193 155L198 156L194 160L195 165L190 163L185 165L186 160L182 156L187 155L190 150Z" fill="#FFFFFF" />
  <path d="M220 170L222 173L225 174L222 176L223 179L220 178L217 179L218 176L215 174L218 173L220 170Z" fill="#FFFFFF" />
  <path d="M175 190L177 193L180 194L177 196L178 199L175 198L172 199L173 196L170 194L173 193L175 190Z" fill="#FFFFFF" />
</svg>
